<svg width="56" height="57" viewBox="0 0 56 57" fill="none" xmlns="http://www.w3.org/2000/svg">
<path fill-rule="evenodd" clip-rule="evenodd" d="M21.7217 25.3969C28.5769 25.3969 34.1341 19.8396 34.1341 12.9845C34.1341 6.12928 28.5769 0.572055 21.7217 0.572055C14.8665 0.572055 9.30929 6.12928 9.30929 12.9845C9.30929 19.8396 14.8665 25.3969 21.7217 25.3969ZM21.7217 56.4277C33.7182 56.4277 43.4434 50.8705 43.4434 44.0154C43.4434 37.1602 33.7182 31.603 21.7217 31.603C9.72513 31.603 0 37.1602 0 44.0154C0 50.8705 9.72513 56.4277 21.7217 56.4277ZM34.0153 24.8241C36.9716 21.7553 38.7896 17.5823 38.7896 12.9846C38.7896 10.7982 38.3785 8.70779 37.6293 6.78651C42.5891 6.99165 46.5472 11.0775 46.5472 16.0877C46.5472 21.2291 42.3793 25.397 37.2379 25.397C36.105 25.397 35.0194 25.1947 34.0153 24.8241ZM48.0953 44.0153C48.0953 45.6873 47.7237 47.3031 47.0311 48.8301C52.3264 47.1887 55.8531 44.2564 55.8531 40.9122C55.8531 36.2383 48.9642 32.3689 39.9863 31.7039C44.9844 34.8096 48.0953 39.1774 48.0953 44.0153Z" fill="white"/>
</svg>
