<svg width="69" height="55" viewBox="0 0 69 55" fill="none" xmlns="http://www.w3.org/2000/svg">
<path fill-rule="evenodd" clip-rule="evenodd" d="M57.6554 0.250671H11.332C9.07466 0.250671 7.24468 2.08064 7.24468 4.33802V39.4212H36.1968V9.44722C36.1968 7.18984 38.0268 5.35987 40.2841 5.35987H61.7428V4.33803C61.7428 2.08064 59.9128 0.250671 57.6554 0.250671ZM41.3072 14.5564C41.3072 12.299 43.1371 10.4691 45.3945 10.4691H64.4689C66.7262 10.4691 68.5562 12.299 68.5562 14.5564V50.6614C68.5562 52.9188 66.7262 54.7488 64.4689 54.7488H45.3945C43.1371 54.7488 41.3072 52.9188 41.3072 50.6614V14.5564ZM4.52095 44.5303H36.198V54.7487H4.52095C2.26356 54.7487 0.433594 52.9188 0.433594 50.6614V48.6177C0.433594 46.3603 2.26357 44.5303 4.52095 44.5303Z" fill="white"/>
</svg>
