<svg width="61" height="61" viewBox="0 0 61 61" fill="none" xmlns="http://www.w3.org/2000/svg">
<path fill-rule="evenodd" clip-rule="evenodd" d="M6.43803 0.477783C3.12187 0.477783 0.433594 3.16606 0.433594 6.48222V12.4866C0.433594 15.8028 3.12187 18.4911 6.43803 18.4911H18.4469C21.763 18.4911 24.4513 15.8028 24.4513 12.4866V6.48222C24.4513 3.16606 21.763 0.477783 18.4469 0.477783H6.43803ZM6.43803 30.4999C3.12187 30.4999 0.433594 33.1882 0.433594 36.5043V54.5176C0.433594 57.8338 3.12187 60.5221 6.43803 60.5221H18.4469C21.763 60.5221 24.4513 57.8338 24.4513 54.5176V36.5043C24.4513 33.1882 21.763 30.4999 18.4469 30.4999H6.43803ZM36.4609 6.48221C36.4609 3.16606 39.1492 0.477783 42.4653 0.477783H54.4742C57.7904 0.477783 60.4787 3.16606 60.4787 6.48221V24.4955C60.4787 27.8117 57.7904 30.4999 54.4742 30.4999H42.4653C39.1492 30.4999 36.4609 27.8117 36.4609 24.4955V6.48221ZM42.4653 42.5089C39.1492 42.5089 36.4609 45.1972 36.4609 48.5133V54.5178C36.4609 57.8339 39.1492 60.5222 42.4653 60.5222H54.4742C57.7904 60.5222 60.4787 57.8339 60.4787 54.5178V48.5133C60.4787 45.1972 57.7904 42.5089 54.4742 42.5089H42.4653Z" fill="white"/>
</svg>
